<svg xmlns="http://www.w3.org/2000/svg" width="16" height="16" viewBox="0 0 16 16" fill="none"
     class="w-3 h-3 text-inherit">
    <path d="M10.862 2.19519C10.987 2.07021 11.1566 2 11.3333 2C11.5101 2 11.6797 2.07021 11.8047 2.19519L13.8047 4.19519C13.9296 4.32021 13.9999 4.48975 13.9999 4.66652C13.9999 4.8433 13.9296 5.01284 13.8047 5.13786L7.80467 11.1379C7.67967 11.2629 7.51013 11.3332 7.33333 11.3332H5.33333C5.15652 11.3332 4.98695 11.263 4.86193 11.1379C4.73691 11.0129 4.66667 10.8433 4.66667 10.6665V8.66652C4.6667 8.48973 4.73697 8.32019 4.862 8.19519L10.862 2.19519ZM6 8.94252V9.99986H7.05733L12.3907 4.66652L11.3333 3.60919L6 8.94252ZM2 4.66652C2 4.3129 2.14048 3.97376 2.39052 3.72372C2.64057 3.47367 2.97971 3.33319 3.33333 3.33319H6.66667C6.84348 3.33319 7.01305 3.40343 7.13807 3.52845C7.2631 3.65348 7.33333 3.82305 7.33333 3.99986C7.33333 4.17667 7.2631 4.34624 7.13807 4.47126C7.01305 4.59629 6.84348 4.66652 6.66667 4.66652H3.33333V12.6665H11.3333V9.33319C11.3333 9.15638 11.4036 8.98681 11.5286 8.86179C11.6536 8.73676 11.8232 8.66652 12 8.66652C12.1768 8.66652 12.3464 8.73676 12.4714 8.86179C12.5964 8.98681 12.6667 9.15638 12.6667 9.33319V12.6665C12.6667 13.0201 12.5262 13.3593 12.2761 13.6093C12.0261 13.8594 11.687 13.9999 11.3333 13.9999H3.33333C2.97971 13.9999 2.64057 13.8594 2.39052 13.6093C2.14048 13.3593 2 13.0201 2 12.6665V4.66652Z"
          fill="currentColor"></path>
</svg>